<?xml version="1.0" encoding="utf-8" standalone="no"?>
<!DOCTYPE svg PUBLIC "-//W3C//DTD SVG 1.1//EN"
  "http://www.w3.org/Graphics/SVG/1.1/DTD/svg11.dtd">
<svg height="360pt" version="1.1" viewBox="0 0 864 360" width="864pt" xmlns="http://www.w3.org/2000/svg" xmlns:xlink="http://www.w3.org/1999/xlink">
 <metadata>
  <rdf:RDF xmlns:cc="http://creativecommons.org/ns#" xmlns:dc="http://purl.org/dc/elements/1.1/" xmlns:rdf="http://www.w3.org/1999/02/22-rdf-syntax-ns#">
   <cc:Work>
    <dc:type rdf:resource="http://purl.org/dc/dcmitype/StillImage"/>
    <dc:date>2021-12-08T13:04:54.492476</dc:date>
    <dc:format>image/svg+xml</dc:format>
    <dc:creator>
     <cc:Agent>
      <dc:title>Matplotlib v3.4.2, https://matplotlib.org/</dc:title>
     </cc:Agent>
    </dc:creator>
   </cc:Work>
  </rdf:RDF>
 </metadata>
 <defs>
  <style type="text/css">*{stroke-linecap:butt;stroke-linejoin:round;}</style>
 </defs>
 <g id="figure_1">
  <g id="patch_1">
   <path d="M 0 360 
L 864 360 
L 864 0 
L 0 0 
z
" style="fill:none;"/>
  </g>
  <g id="axes_1">
   <g id="patch_2">
    <path d="M 66.245 304.88 
L 837.8175 304.88 
L 837.8175 20.62 
L 66.245 20.62 
z
" style="fill:#ffffff;"/>
   </g>
   <g id="matplotlib.axis_1">
    <g id="xtick_1">
     <g id="line2d_1">
      <defs>
       <path d="M 0 0 
L 0 3.5 
" id="m3111524c2b" style="stroke:#000000;stroke-width:0.8;"/>
      </defs>
      <g>
       <use style="stroke:#000000;stroke-width:0.8;" x="66.245" xlink:href="#m3111524c2b" y="304.88"/>
      </g>
     </g>
     <g id="text_1">
      <!-- 0.0 -->
      <g transform="translate(55.112813 322.517812)scale(0.14 -0.14)">
       <defs>
        <path d="M 2034 4250 
Q 1547 4250 1301 3770 
Q 1056 3291 1056 2328 
Q 1056 1369 1301 889 
Q 1547 409 2034 409 
Q 2525 409 2770 889 
Q 3016 1369 3016 2328 
Q 3016 3291 2770 3770 
Q 2525 4250 2034 4250 
z
M 2034 4750 
Q 2819 4750 3233 4129 
Q 3647 3509 3647 2328 
Q 3647 1150 3233 529 
Q 2819 -91 2034 -91 
Q 1250 -91 836 529 
Q 422 1150 422 2328 
Q 422 3509 836 4129 
Q 1250 4750 2034 4750 
z
" id="DejaVuSans-30" transform="scale(0.015625)"/>
        <path d="M 684 794 
L 1344 794 
L 1344 0 
L 684 0 
L 684 794 
z
" id="DejaVuSans-2e" transform="scale(0.015625)"/>
       </defs>
       <use xlink:href="#DejaVuSans-30"/>
       <use x="63.623047" xlink:href="#DejaVuSans-2e"/>
       <use x="95.410156" xlink:href="#DejaVuSans-30"/>
      </g>
     </g>
    </g>
    <g id="xtick_2">
     <g id="line2d_2">
      <g>
       <use style="stroke:#000000;stroke-width:0.8;" x="220.5595" xlink:href="#m3111524c2b" y="304.88"/>
      </g>
     </g>
     <g id="text_2">
      <!-- 0.2 -->
      <g transform="translate(209.427313 322.517812)scale(0.14 -0.14)">
       <defs>
        <path d="M 1228 531 
L 3431 531 
L 3431 0 
L 469 0 
L 469 531 
Q 828 903 1448 1529 
Q 2069 2156 2228 2338 
Q 2531 2678 2651 2914 
Q 2772 3150 2772 3378 
Q 2772 3750 2511 3984 
Q 2250 4219 1831 4219 
Q 1534 4219 1204 4116 
Q 875 4013 500 3803 
L 500 4441 
Q 881 4594 1212 4672 
Q 1544 4750 1819 4750 
Q 2544 4750 2975 4387 
Q 3406 4025 3406 3419 
Q 3406 3131 3298 2873 
Q 3191 2616 2906 2266 
Q 2828 2175 2409 1742 
Q 1991 1309 1228 531 
z
" id="DejaVuSans-32" transform="scale(0.015625)"/>
       </defs>
       <use xlink:href="#DejaVuSans-30"/>
       <use x="63.623047" xlink:href="#DejaVuSans-2e"/>
       <use x="95.410156" xlink:href="#DejaVuSans-32"/>
      </g>
     </g>
    </g>
    <g id="xtick_3">
     <g id="line2d_3">
      <g>
       <use style="stroke:#000000;stroke-width:0.8;" x="374.874" xlink:href="#m3111524c2b" y="304.88"/>
      </g>
     </g>
     <g id="text_3">
      <!-- 0.4 -->
      <g transform="translate(363.741813 322.517812)scale(0.14 -0.14)">
       <defs>
        <path d="M 2419 4116 
L 825 1625 
L 2419 1625 
L 2419 4116 
z
M 2253 4666 
L 3047 4666 
L 3047 1625 
L 3713 1625 
L 3713 1100 
L 3047 1100 
L 3047 0 
L 2419 0 
L 2419 1100 
L 313 1100 
L 313 1709 
L 2253 4666 
z
" id="DejaVuSans-34" transform="scale(0.015625)"/>
       </defs>
       <use xlink:href="#DejaVuSans-30"/>
       <use x="63.623047" xlink:href="#DejaVuSans-2e"/>
       <use x="95.410156" xlink:href="#DejaVuSans-34"/>
      </g>
     </g>
    </g>
    <g id="xtick_4">
     <g id="line2d_4">
      <g>
       <use style="stroke:#000000;stroke-width:0.8;" x="529.1885" xlink:href="#m3111524c2b" y="304.88"/>
      </g>
     </g>
     <g id="text_4">
      <!-- 0.6 -->
      <g transform="translate(518.056313 322.517812)scale(0.14 -0.14)">
       <defs>
        <path d="M 2113 2584 
Q 1688 2584 1439 2293 
Q 1191 2003 1191 1497 
Q 1191 994 1439 701 
Q 1688 409 2113 409 
Q 2538 409 2786 701 
Q 3034 994 3034 1497 
Q 3034 2003 2786 2293 
Q 2538 2584 2113 2584 
z
M 3366 4563 
L 3366 3988 
Q 3128 4100 2886 4159 
Q 2644 4219 2406 4219 
Q 1781 4219 1451 3797 
Q 1122 3375 1075 2522 
Q 1259 2794 1537 2939 
Q 1816 3084 2150 3084 
Q 2853 3084 3261 2657 
Q 3669 2231 3669 1497 
Q 3669 778 3244 343 
Q 2819 -91 2113 -91 
Q 1303 -91 875 529 
Q 447 1150 447 2328 
Q 447 3434 972 4092 
Q 1497 4750 2381 4750 
Q 2619 4750 2861 4703 
Q 3103 4656 3366 4563 
z
" id="DejaVuSans-36" transform="scale(0.015625)"/>
       </defs>
       <use xlink:href="#DejaVuSans-30"/>
       <use x="63.623047" xlink:href="#DejaVuSans-2e"/>
       <use x="95.410156" xlink:href="#DejaVuSans-36"/>
      </g>
     </g>
    </g>
    <g id="xtick_5">
     <g id="line2d_5">
      <g>
       <use style="stroke:#000000;stroke-width:0.8;" x="683.503" xlink:href="#m3111524c2b" y="304.88"/>
      </g>
     </g>
     <g id="text_5">
      <!-- 0.8 -->
      <g transform="translate(672.370813 322.517812)scale(0.14 -0.14)">
       <defs>
        <path d="M 2034 2216 
Q 1584 2216 1326 1975 
Q 1069 1734 1069 1313 
Q 1069 891 1326 650 
Q 1584 409 2034 409 
Q 2484 409 2743 651 
Q 3003 894 3003 1313 
Q 3003 1734 2745 1975 
Q 2488 2216 2034 2216 
z
M 1403 2484 
Q 997 2584 770 2862 
Q 544 3141 544 3541 
Q 544 4100 942 4425 
Q 1341 4750 2034 4750 
Q 2731 4750 3128 4425 
Q 3525 4100 3525 3541 
Q 3525 3141 3298 2862 
Q 3072 2584 2669 2484 
Q 3125 2378 3379 2068 
Q 3634 1759 3634 1313 
Q 3634 634 3220 271 
Q 2806 -91 2034 -91 
Q 1263 -91 848 271 
Q 434 634 434 1313 
Q 434 1759 690 2068 
Q 947 2378 1403 2484 
z
M 1172 3481 
Q 1172 3119 1398 2916 
Q 1625 2713 2034 2713 
Q 2441 2713 2670 2916 
Q 2900 3119 2900 3481 
Q 2900 3844 2670 4047 
Q 2441 4250 2034 4250 
Q 1625 4250 1398 4047 
Q 1172 3844 1172 3481 
z
" id="DejaVuSans-38" transform="scale(0.015625)"/>
       </defs>
       <use xlink:href="#DejaVuSans-30"/>
       <use x="63.623047" xlink:href="#DejaVuSans-2e"/>
       <use x="95.410156" xlink:href="#DejaVuSans-38"/>
      </g>
     </g>
    </g>
    <g id="xtick_6">
     <g id="line2d_6">
      <g>
       <use style="stroke:#000000;stroke-width:0.8;" x="837.8175" xlink:href="#m3111524c2b" y="304.88"/>
      </g>
     </g>
     <g id="text_6">
      <!-- 1.0 -->
      <g transform="translate(826.685313 322.517812)scale(0.14 -0.14)">
       <defs>
        <path d="M 794 531 
L 1825 531 
L 1825 4091 
L 703 3866 
L 703 4441 
L 1819 4666 
L 2450 4666 
L 2450 531 
L 3481 531 
L 3481 0 
L 794 0 
L 794 531 
z
" id="DejaVuSans-31" transform="scale(0.015625)"/>
       </defs>
       <use xlink:href="#DejaVuSans-31"/>
       <use x="63.623047" xlink:href="#DejaVuSans-2e"/>
       <use x="95.410156" xlink:href="#DejaVuSans-30"/>
      </g>
     </g>
    </g>
    <g id="text_7">
     <!-- $x$ -->
     <g transform="translate(447.23125 341.586875)scale(0.16 -0.16)">
      <defs>
       <path d="M 3841 3500 
L 2234 1784 
L 3219 0 
L 2559 0 
L 1819 1388 
L 531 0 
L -166 0 
L 1556 1844 
L 641 3500 
L 1300 3500 
L 1972 2234 
L 3144 3500 
L 3841 3500 
z
" id="DejaVuSans-Oblique-78" transform="scale(0.015625)"/>
      </defs>
      <use transform="translate(0 0.3125)" xlink:href="#DejaVuSans-Oblique-78"/>
     </g>
    </g>
   </g>
   <g id="matplotlib.axis_2">
    <g id="ytick_1">
     <g id="line2d_7">
      <defs>
       <path d="M 0 0 
L -3.5 0 
" id="m5cc7fac2aa" style="stroke:#000000;stroke-width:0.8;"/>
      </defs>
      <g>
       <use style="stroke:#000000;stroke-width:0.8;" x="66.245" xlink:href="#m5cc7fac2aa" y="304.88"/>
      </g>
     </g>
     <g id="text_8">
      <!-- 0.0 -->
      <g transform="translate(36.980625 310.198906)scale(0.14 -0.14)">
       <use xlink:href="#DejaVuSans-30"/>
       <use x="63.623047" xlink:href="#DejaVuSans-2e"/>
       <use x="95.410156" xlink:href="#DejaVuSans-30"/>
      </g>
     </g>
    </g>
    <g id="ytick_2">
     <g id="line2d_8">
      <g>
       <use style="stroke:#000000;stroke-width:0.8;" x="66.245" xlink:href="#m5cc7fac2aa" y="248.028"/>
      </g>
     </g>
     <g id="text_9">
      <!-- 0.2 -->
      <g transform="translate(36.980625 253.346906)scale(0.14 -0.14)">
       <use xlink:href="#DejaVuSans-30"/>
       <use x="63.623047" xlink:href="#DejaVuSans-2e"/>
       <use x="95.410156" xlink:href="#DejaVuSans-32"/>
      </g>
     </g>
    </g>
    <g id="ytick_3">
     <g id="line2d_9">
      <g>
       <use style="stroke:#000000;stroke-width:0.8;" x="66.245" xlink:href="#m5cc7fac2aa" y="191.176"/>
      </g>
     </g>
     <g id="text_10">
      <!-- 0.4 -->
      <g transform="translate(36.980625 196.494906)scale(0.14 -0.14)">
       <use xlink:href="#DejaVuSans-30"/>
       <use x="63.623047" xlink:href="#DejaVuSans-2e"/>
       <use x="95.410156" xlink:href="#DejaVuSans-34"/>
      </g>
     </g>
    </g>
    <g id="ytick_4">
     <g id="line2d_10">
      <g>
       <use style="stroke:#000000;stroke-width:0.8;" x="66.245" xlink:href="#m5cc7fac2aa" y="134.324"/>
      </g>
     </g>
     <g id="text_11">
      <!-- 0.6 -->
      <g transform="translate(36.980625 139.642906)scale(0.14 -0.14)">
       <use xlink:href="#DejaVuSans-30"/>
       <use x="63.623047" xlink:href="#DejaVuSans-2e"/>
       <use x="95.410156" xlink:href="#DejaVuSans-36"/>
      </g>
     </g>
    </g>
    <g id="ytick_5">
     <g id="line2d_11">
      <g>
       <use style="stroke:#000000;stroke-width:0.8;" x="66.245" xlink:href="#m5cc7fac2aa" y="77.472"/>
      </g>
     </g>
     <g id="text_12">
      <!-- 0.8 -->
      <g transform="translate(36.980625 82.790906)scale(0.14 -0.14)">
       <use xlink:href="#DejaVuSans-30"/>
       <use x="63.623047" xlink:href="#DejaVuSans-2e"/>
       <use x="95.410156" xlink:href="#DejaVuSans-38"/>
      </g>
     </g>
    </g>
    <g id="ytick_6">
     <g id="line2d_12">
      <g>
       <use style="stroke:#000000;stroke-width:0.8;" x="66.245" xlink:href="#m5cc7fac2aa" y="20.62"/>
      </g>
     </g>
     <g id="text_13">
      <!-- 1.0 -->
      <g transform="translate(36.980625 25.938906)scale(0.14 -0.14)">
       <use xlink:href="#DejaVuSans-31"/>
       <use x="63.623047" xlink:href="#DejaVuSans-2e"/>
       <use x="95.410156" xlink:href="#DejaVuSans-30"/>
      </g>
     </g>
    </g>
    <g id="text_14">
     <!-- $f(x)$ -->
     <g transform="translate(29.653125 176.59)rotate(-90)scale(0.16 -0.16)">
      <defs>
       <path d="M 3059 4863 
L 2969 4384 
L 2419 4384 
Q 2106 4384 1964 4261 
Q 1822 4138 1753 3809 
L 1691 3500 
L 2638 3500 
L 2553 3053 
L 1606 3053 
L 1013 0 
L 434 0 
L 1031 3053 
L 481 3053 
L 563 3500 
L 1113 3500 
L 1159 3744 
Q 1278 4363 1576 4613 
Q 1875 4863 2516 4863 
L 3059 4863 
z
" id="DejaVuSans-Oblique-66" transform="scale(0.015625)"/>
       <path d="M 1984 4856 
Q 1566 4138 1362 3434 
Q 1159 2731 1159 2009 
Q 1159 1288 1364 580 
Q 1569 -128 1984 -844 
L 1484 -844 
Q 1016 -109 783 600 
Q 550 1309 550 2009 
Q 550 2706 781 3412 
Q 1013 4119 1484 4856 
L 1984 4856 
z
" id="DejaVuSans-28" transform="scale(0.015625)"/>
       <path d="M 513 4856 
L 1013 4856 
Q 1481 4119 1714 3412 
Q 1947 2706 1947 2009 
Q 1947 1309 1714 600 
Q 1481 -109 1013 -844 
L 513 -844 
Q 928 -128 1133 580 
Q 1338 1288 1338 2009 
Q 1338 2731 1133 3434 
Q 928 4138 513 4856 
z
" id="DejaVuSans-29" transform="scale(0.015625)"/>
      </defs>
      <use transform="translate(0 0.015625)" xlink:href="#DejaVuSans-Oblique-66"/>
      <use transform="translate(35.205078 0.015625)" xlink:href="#DejaVuSans-28"/>
      <use transform="translate(74.21875 0.015625)" xlink:href="#DejaVuSans-Oblique-78"/>
      <use transform="translate(133.398438 0.015625)" xlink:href="#DejaVuSans-29"/>
     </g>
    </g>
   </g>
   <g id="line2d_13">
    <path clip-path="url(#p06928f1bed)" d="M 66.245 304.88 
L 74.038662 302.03769 
L 81.832323 299.253386 
L 89.625985 296.527089 
L 97.419646 293.858798 
L 105.213308 291.248513 
L 113.00697 288.696235 
L 120.800631 286.201963 
L 128.594293 283.765697 
L 136.387955 281.387438 
L 144.181616 279.067185 
L 151.975278 276.804938 
L 159.768939 274.600698 
L 167.562601 272.454464 
L 175.356263 270.366236 
L 183.149924 268.336015 
L 190.943586 266.3638 
L 198.737247 264.449591 
L 206.530909 262.593388 
L 214.324571 260.795192 
L 222.118232 259.055003 
L 229.911894 257.372819 
L 237.705556 255.748642 
L 245.499217 254.182471 
L 253.292879 252.674307 
L 261.08654 251.224149 
L 268.880202 249.831997 
L 276.673864 248.497851 
L 284.467525 247.221712 
L 292.261187 246.003579 
L 300.054848 244.843453 
L 307.84851 243.741333 
L 315.642172 242.697219 
L 323.435833 241.711111 
L 331.229495 240.78301 
L 339.023157 239.912915 
L 346.816818 239.100826 
L 354.61048 238.346744 
L 362.404141 237.650668 
L 370.197803 237.012599 
L 377.991465 236.432535 
L 385.785126 235.910479 
L 393.578788 235.446428 
L 401.372449 235.040384 
L 409.166111 234.692346 
L 416.959773 234.402314 
L 424.753434 234.170289 
L 432.547096 233.99627 
L 440.340758 233.880257 
L 448.134419 233.822251 
L 455.928081 233.822251 
L 463.721742 233.880257 
L 471.515404 233.99627 
L 479.309066 234.170289 
L 487.102727 234.402314 
L 494.896389 234.692346 
L 502.690051 235.040384 
L 510.483712 235.446428 
L 518.277374 235.910479 
L 526.071035 236.432535 
L 533.864697 237.012599 
L 541.658359 237.650668 
L 549.45202 238.346744 
L 557.245682 239.100826 
L 565.039343 239.912915 
L 572.833005 240.78301 
L 580.626667 241.711111 
L 588.420328 242.697219 
L 596.21399 243.741333 
L 604.007652 244.843453 
L 611.801313 246.003579 
L 619.594975 247.221712 
L 627.388636 248.497851 
L 635.182298 249.831997 
L 642.97596 251.224149 
L 650.769621 252.674307 
L 658.563283 254.182471 
L 666.356944 255.748642 
L 674.150606 257.372819 
L 681.944268 259.055003 
L 689.737929 260.795192 
L 697.531591 262.593388 
L 705.325253 264.449591 
L 713.118914 266.3638 
L 720.912576 268.336015 
L 728.706237 270.366236 
L 736.499899 272.454464 
L 744.293561 274.600698 
L 752.087222 276.804938 
L 759.880884 279.067185 
L 767.674545 281.387438 
L 775.468207 283.765697 
L 783.261869 286.201963 
L 791.05553 288.696235 
L 798.849192 291.248513 
L 806.642854 293.858798 
L 814.436515 296.527089 
L 822.230177 299.253386 
L 830.023838 302.03769 
L 837.8175 304.88 
" style="fill:none;stroke:#0000ff;stroke-dasharray:1.5,2.475;stroke-dashoffset:0;stroke-width:1.5;"/>
   </g>
   <g id="line2d_14">
    <path clip-path="url(#p06928f1bed)" d="M 66.245 304.88 
L 74.038662 304.879707 
L 81.832323 304.877656 
L 89.625985 304.87209 
L 97.419646 304.86125 
L 105.213308 304.84338 
L 113.00697 304.81672 
L 120.800631 304.779514 
L 128.594293 304.730004 
L 136.387955 304.666431 
L 144.181616 304.587039 
L 151.975278 304.490069 
L 159.768939 304.373763 
L 167.562601 304.236364 
L 175.356263 304.076114 
L 183.149924 303.891256 
L 190.943586 303.680031 
L 198.737247 303.440681 
L 206.530909 303.17145 
L 214.324571 302.870579 
L 222.118232 302.53631 
L 229.911894 302.166886 
L 237.705556 301.760549 
L 245.499217 301.315541 
L 253.292879 300.830104 
L 261.08654 300.302481 
L 268.880202 299.730913 
L 276.673864 299.113644 
L 284.467525 298.448915 
L 292.261187 297.734968 
L 300.054848 296.970046 
L 307.84851 296.152392 
L 315.642172 295.280246 
L 323.435833 294.351852 
L 331.229495 293.365451 
L 339.023157 292.319287 
L 346.816818 291.2116 
L 354.61048 290.040634 
L 362.404141 288.804631 
L 370.197803 287.501832 
L 377.991465 286.130481 
L 385.785126 284.688818 
L 393.578788 283.175088 
L 401.372449 281.587531 
L 409.166111 279.92439 
L 416.959773 278.183907 
L 424.753434 276.364325 
L 432.547096 274.463885 
L 440.340758 272.48083 
L 448.134419 270.413403 
L 455.928081 268.259845 
L 463.721742 266.018398 
L 471.515404 263.687306 
L 479.309066 261.264809 
L 487.102727 258.749151 
L 494.896389 256.138573 
L 502.690051 253.431319 
L 510.483712 250.625629 
L 518.277374 247.719746 
L 526.071035 244.711913 
L 533.864697 241.600372 
L 541.658359 238.383364 
L 549.45202 235.059133 
L 557.245682 231.62592 
L 565.039343 228.081968 
L 572.833005 224.425519 
L 580.626667 220.654815 
L 588.420328 216.768098 
L 596.21399 212.763611 
L 604.007652 208.639595 
L 611.801313 204.394294 
L 619.594975 200.025949 
L 627.388636 195.532802 
L 635.182298 190.913097 
L 642.97596 186.165074 
L 650.769621 181.286976 
L 658.563283 176.277046 
L 666.356944 171.133525 
L 674.150606 165.854657 
L 681.944268 160.438682 
L 689.737929 154.883844 
L 697.531591 149.188385 
L 705.325253 143.350546 
L 713.118914 137.36857 
L 720.912576 131.2407 
L 728.706237 124.965177 
L 736.499899 118.540244 
L 744.293561 111.964143 
L 752.087222 105.235117 
L 759.880884 98.351406 
L 767.674545 91.311255 
L 775.468207 84.112904 
L 783.261869 76.754597 
L 791.05553 69.234574 
L 798.849192 61.55108 
L 806.642854 53.702355 
L 814.436515 45.686643 
L 822.230177 37.502185 
L 830.023838 29.147223 
L 837.8175 20.62 
" style="fill:none;stroke:#ff0000;stroke-dasharray:5.55,2.4;stroke-dashoffset:0;stroke-width:1.5;"/>
   </g>
   <g id="line2d_15">
    <path clip-path="url(#p06928f1bed)" d="M 66.245 304.88 
L 74.038662 302.037397 
L 81.832323 299.251043 
L 89.625985 296.519179 
L 97.419646 293.840049 
L 105.213308 291.211893 
L 113.00697 288.632955 
L 120.800631 286.101477 
L 128.594293 283.615701 
L 136.387955 281.173869 
L 144.181616 278.774224 
L 151.975278 276.415007 
L 159.768939 274.094461 
L 167.562601 271.810828 
L 175.356263 269.56235 
L 183.149924 267.347271 
L 190.943586 265.16383 
L 198.737247 263.010272 
L 206.530909 260.884838 
L 214.324571 258.785771 
L 222.118232 256.711313 
L 229.911894 254.659705 
L 237.705556 252.629191 
L 245.499217 250.618012 
L 253.292879 248.62441 
L 261.08654 246.646629 
L 268.880202 244.68291 
L 276.673864 242.731495 
L 284.467525 240.790627 
L 292.261187 238.858547 
L 300.054848 236.933499 
L 307.84851 235.013724 
L 315.642172 233.097465 
L 323.435833 231.182963 
L 331.229495 229.268461 
L 339.023157 227.352202 
L 346.816818 225.432427 
L 354.61048 223.507378 
L 362.404141 221.575299 
L 370.197803 219.634431 
L 377.991465 217.683016 
L 385.785126 215.719297 
L 393.578788 213.741515 
L 401.372449 211.747914 
L 409.166111 209.736735 
L 416.959773 207.706221 
L 424.753434 205.654613 
L 432.547096 203.580155 
L 440.340758 201.481087 
L 448.134419 199.355654 
L 455.928081 197.202096 
L 463.721742 195.018655 
L 471.515404 192.803575 
L 479.309066 190.555098 
L 487.102727 188.271465 
L 494.896389 185.950919 
L 502.690051 183.591702 
L 510.483712 181.192057 
L 518.277374 178.750225 
L 526.071035 176.264449 
L 533.864697 173.73297 
L 541.658359 171.154033 
L 549.45202 168.525877 
L 557.245682 165.846747 
L 565.039343 163.114883 
L 572.833005 160.328529 
L 580.626667 157.485926 
L 588.420328 154.585317 
L 596.21399 151.624943 
L 604.007652 148.603048 
L 611.801313 145.517873 
L 619.594975 142.367661 
L 627.388636 139.150654 
L 635.182298 135.865093 
L 642.97596 132.509222 
L 650.769621 129.081283 
L 658.563283 125.579517 
L 666.356944 122.002167 
L 674.150606 118.347476 
L 681.944268 114.613685 
L 689.737929 110.799037 
L 697.531591 106.901773 
L 705.325253 102.920137 
L 713.118914 98.85237 
L 720.912576 94.696715 
L 728.706237 90.451413 
L 736.499899 86.114708 
L 744.293561 81.684841 
L 752.087222 77.160055 
L 759.880884 72.538591 
L 767.674545 67.818693 
L 775.468207 62.998601 
L 783.261869 58.07656 
L 791.05553 53.050809 
L 798.849192 47.919593 
L 806.642854 42.681153 
L 814.436515 37.333732 
L 822.230177 31.875571 
L 830.023838 26.304913 
L 837.8175 20.62 
" style="fill:none;stroke:#000000;stroke-linecap:square;stroke-width:1.5;"/>
   </g>
   <g id="patch_3">
    <path d="M 66.245 304.88 
L 66.245 20.62 
" style="fill:none;stroke:#000000;stroke-linecap:square;stroke-linejoin:miter;stroke-width:0.8;"/>
   </g>
   <g id="patch_4">
    <path d="M 837.8175 304.88 
L 837.8175 20.62 
" style="fill:none;stroke:#000000;stroke-linecap:square;stroke-linejoin:miter;stroke-width:0.8;"/>
   </g>
   <g id="patch_5">
    <path d="M 66.245 304.88 
L 837.8175 304.88 
" style="fill:none;stroke:#000000;stroke-linecap:square;stroke-linejoin:miter;stroke-width:0.8;"/>
   </g>
   <g id="patch_6">
    <path d="M 66.245 20.62 
L 837.8175 20.62 
" style="fill:none;stroke:#000000;stroke-linecap:square;stroke-linejoin:miter;stroke-width:0.8;"/>
   </g>
   <g id="legend_1">
    <g id="patch_7">
     <path d="M 76.045 93.468125 
L 231.165 93.468125 
Q 233.965 93.468125 233.965 90.668125 
L 233.965 30.42 
Q 233.965 27.62 231.165 27.62 
L 76.045 27.62 
Q 73.245 27.62 73.245 30.42 
L 73.245 90.668125 
Q 73.245 93.468125 76.045 93.468125 
z
" style="fill:#ffffff;opacity:0.8;stroke:#cccccc;stroke-linejoin:miter;"/>
    </g>
    <g id="line2d_16">
     <path d="M 78.845 38.957813 
L 106.845 38.957813 
" style="fill:none;stroke:#0000ff;stroke-dasharray:1.5,2.475;stroke-dashoffset:0;stroke-width:1.5;"/>
    </g>
    <g id="line2d_17"/>
    <g id="text_15">
     <!-- 1st component -->
     <g transform="translate(118.045 43.857813)scale(0.14 -0.14)">
      <defs>
       <path d="M 2834 3397 
L 2834 2853 
Q 2591 2978 2328 3040 
Q 2066 3103 1784 3103 
Q 1356 3103 1142 2972 
Q 928 2841 928 2578 
Q 928 2378 1081 2264 
Q 1234 2150 1697 2047 
L 1894 2003 
Q 2506 1872 2764 1633 
Q 3022 1394 3022 966 
Q 3022 478 2636 193 
Q 2250 -91 1575 -91 
Q 1294 -91 989 -36 
Q 684 19 347 128 
L 347 722 
Q 666 556 975 473 
Q 1284 391 1588 391 
Q 1994 391 2212 530 
Q 2431 669 2431 922 
Q 2431 1156 2273 1281 
Q 2116 1406 1581 1522 
L 1381 1569 
Q 847 1681 609 1914 
Q 372 2147 372 2553 
Q 372 3047 722 3315 
Q 1072 3584 1716 3584 
Q 2034 3584 2315 3537 
Q 2597 3491 2834 3397 
z
" id="DejaVuSans-73" transform="scale(0.015625)"/>
       <path d="M 1172 4494 
L 1172 3500 
L 2356 3500 
L 2356 3053 
L 1172 3053 
L 1172 1153 
Q 1172 725 1289 603 
Q 1406 481 1766 481 
L 2356 481 
L 2356 0 
L 1766 0 
Q 1100 0 847 248 
Q 594 497 594 1153 
L 594 3053 
L 172 3053 
L 172 3500 
L 594 3500 
L 594 4494 
L 1172 4494 
z
" id="DejaVuSans-74" transform="scale(0.015625)"/>
       <path id="DejaVuSans-20" transform="scale(0.015625)"/>
       <path d="M 3122 3366 
L 3122 2828 
Q 2878 2963 2633 3030 
Q 2388 3097 2138 3097 
Q 1578 3097 1268 2742 
Q 959 2388 959 1747 
Q 959 1106 1268 751 
Q 1578 397 2138 397 
Q 2388 397 2633 464 
Q 2878 531 3122 666 
L 3122 134 
Q 2881 22 2623 -34 
Q 2366 -91 2075 -91 
Q 1284 -91 818 406 
Q 353 903 353 1747 
Q 353 2603 823 3093 
Q 1294 3584 2113 3584 
Q 2378 3584 2631 3529 
Q 2884 3475 3122 3366 
z
" id="DejaVuSans-63" transform="scale(0.015625)"/>
       <path d="M 1959 3097 
Q 1497 3097 1228 2736 
Q 959 2375 959 1747 
Q 959 1119 1226 758 
Q 1494 397 1959 397 
Q 2419 397 2687 759 
Q 2956 1122 2956 1747 
Q 2956 2369 2687 2733 
Q 2419 3097 1959 3097 
z
M 1959 3584 
Q 2709 3584 3137 3096 
Q 3566 2609 3566 1747 
Q 3566 888 3137 398 
Q 2709 -91 1959 -91 
Q 1206 -91 779 398 
Q 353 888 353 1747 
Q 353 2609 779 3096 
Q 1206 3584 1959 3584 
z
" id="DejaVuSans-6f" transform="scale(0.015625)"/>
       <path d="M 3328 2828 
Q 3544 3216 3844 3400 
Q 4144 3584 4550 3584 
Q 5097 3584 5394 3201 
Q 5691 2819 5691 2113 
L 5691 0 
L 5113 0 
L 5113 2094 
Q 5113 2597 4934 2840 
Q 4756 3084 4391 3084 
Q 3944 3084 3684 2787 
Q 3425 2491 3425 1978 
L 3425 0 
L 2847 0 
L 2847 2094 
Q 2847 2600 2669 2842 
Q 2491 3084 2119 3084 
Q 1678 3084 1418 2786 
Q 1159 2488 1159 1978 
L 1159 0 
L 581 0 
L 581 3500 
L 1159 3500 
L 1159 2956 
Q 1356 3278 1631 3431 
Q 1906 3584 2284 3584 
Q 2666 3584 2933 3390 
Q 3200 3197 3328 2828 
z
" id="DejaVuSans-6d" transform="scale(0.015625)"/>
       <path d="M 1159 525 
L 1159 -1331 
L 581 -1331 
L 581 3500 
L 1159 3500 
L 1159 2969 
Q 1341 3281 1617 3432 
Q 1894 3584 2278 3584 
Q 2916 3584 3314 3078 
Q 3713 2572 3713 1747 
Q 3713 922 3314 415 
Q 2916 -91 2278 -91 
Q 1894 -91 1617 61 
Q 1341 213 1159 525 
z
M 3116 1747 
Q 3116 2381 2855 2742 
Q 2594 3103 2138 3103 
Q 1681 3103 1420 2742 
Q 1159 2381 1159 1747 
Q 1159 1113 1420 752 
Q 1681 391 2138 391 
Q 2594 391 2855 752 
Q 3116 1113 3116 1747 
z
" id="DejaVuSans-70" transform="scale(0.015625)"/>
       <path d="M 3513 2113 
L 3513 0 
L 2938 0 
L 2938 2094 
Q 2938 2591 2744 2837 
Q 2550 3084 2163 3084 
Q 1697 3084 1428 2787 
Q 1159 2491 1159 1978 
L 1159 0 
L 581 0 
L 581 3500 
L 1159 3500 
L 1159 2956 
Q 1366 3272 1645 3428 
Q 1925 3584 2291 3584 
Q 2894 3584 3203 3211 
Q 3513 2838 3513 2113 
z
" id="DejaVuSans-6e" transform="scale(0.015625)"/>
       <path d="M 3597 1894 
L 3597 1613 
L 953 1613 
Q 991 1019 1311 708 
Q 1631 397 2203 397 
Q 2534 397 2845 478 
Q 3156 559 3463 722 
L 3463 178 
Q 3153 47 2828 -22 
Q 2503 -91 2169 -91 
Q 1331 -91 842 396 
Q 353 884 353 1716 
Q 353 2575 817 3079 
Q 1281 3584 2069 3584 
Q 2775 3584 3186 3129 
Q 3597 2675 3597 1894 
z
M 3022 2063 
Q 3016 2534 2758 2815 
Q 2500 3097 2075 3097 
Q 1594 3097 1305 2825 
Q 1016 2553 972 2059 
L 3022 2063 
z
" id="DejaVuSans-65" transform="scale(0.015625)"/>
      </defs>
      <use xlink:href="#DejaVuSans-31"/>
      <use x="63.623047" xlink:href="#DejaVuSans-73"/>
      <use x="115.722656" xlink:href="#DejaVuSans-74"/>
      <use x="154.931641" xlink:href="#DejaVuSans-20"/>
      <use x="186.71875" xlink:href="#DejaVuSans-63"/>
      <use x="241.699219" xlink:href="#DejaVuSans-6f"/>
      <use x="302.880859" xlink:href="#DejaVuSans-6d"/>
      <use x="400.292969" xlink:href="#DejaVuSans-70"/>
      <use x="463.769531" xlink:href="#DejaVuSans-6f"/>
      <use x="524.951172" xlink:href="#DejaVuSans-6e"/>
      <use x="588.330078" xlink:href="#DejaVuSans-65"/>
      <use x="649.853516" xlink:href="#DejaVuSans-6e"/>
      <use x="713.232422" xlink:href="#DejaVuSans-74"/>
     </g>
    </g>
    <g id="line2d_18">
     <path d="M 78.845 59.507188 
L 106.845 59.507188 
" style="fill:none;stroke:#ff0000;stroke-dasharray:5.55,2.4;stroke-dashoffset:0;stroke-width:1.5;"/>
    </g>
    <g id="line2d_19"/>
    <g id="text_16">
     <!-- 2nd component -->
     <g transform="translate(118.045 64.407188)scale(0.14 -0.14)">
      <defs>
       <path d="M 2906 2969 
L 2906 4863 
L 3481 4863 
L 3481 0 
L 2906 0 
L 2906 525 
Q 2725 213 2448 61 
Q 2172 -91 1784 -91 
Q 1150 -91 751 415 
Q 353 922 353 1747 
Q 353 2572 751 3078 
Q 1150 3584 1784 3584 
Q 2172 3584 2448 3432 
Q 2725 3281 2906 2969 
z
M 947 1747 
Q 947 1113 1208 752 
Q 1469 391 1925 391 
Q 2381 391 2643 752 
Q 2906 1113 2906 1747 
Q 2906 2381 2643 2742 
Q 2381 3103 1925 3103 
Q 1469 3103 1208 2742 
Q 947 2381 947 1747 
z
" id="DejaVuSans-64" transform="scale(0.015625)"/>
      </defs>
      <use xlink:href="#DejaVuSans-32"/>
      <use x="63.623047" xlink:href="#DejaVuSans-6e"/>
      <use x="127.001953" xlink:href="#DejaVuSans-64"/>
      <use x="190.478516" xlink:href="#DejaVuSans-20"/>
      <use x="222.265625" xlink:href="#DejaVuSans-63"/>
      <use x="277.246094" xlink:href="#DejaVuSans-6f"/>
      <use x="338.427734" xlink:href="#DejaVuSans-6d"/>
      <use x="435.839844" xlink:href="#DejaVuSans-70"/>
      <use x="499.316406" xlink:href="#DejaVuSans-6f"/>
      <use x="560.498047" xlink:href="#DejaVuSans-6e"/>
      <use x="623.876953" xlink:href="#DejaVuSans-65"/>
      <use x="685.400391" xlink:href="#DejaVuSans-6e"/>
      <use x="748.779297" xlink:href="#DejaVuSans-74"/>
     </g>
    </g>
    <g id="line2d_20">
     <path d="M 78.845 80.056563 
L 106.845 80.056563 
" style="fill:none;stroke:#000000;stroke-linecap:square;stroke-width:1.5;"/>
    </g>
    <g id="line2d_21"/>
    <g id="text_17">
     <!-- total -->
     <g transform="translate(118.045 84.956563)scale(0.14 -0.14)">
      <defs>
       <path d="M 2194 1759 
Q 1497 1759 1228 1600 
Q 959 1441 959 1056 
Q 959 750 1161 570 
Q 1363 391 1709 391 
Q 2188 391 2477 730 
Q 2766 1069 2766 1631 
L 2766 1759 
L 2194 1759 
z
M 3341 1997 
L 3341 0 
L 2766 0 
L 2766 531 
Q 2569 213 2275 61 
Q 1981 -91 1556 -91 
Q 1019 -91 701 211 
Q 384 513 384 1019 
Q 384 1609 779 1909 
Q 1175 2209 1959 2209 
L 2766 2209 
L 2766 2266 
Q 2766 2663 2505 2880 
Q 2244 3097 1772 3097 
Q 1472 3097 1187 3025 
Q 903 2953 641 2809 
L 641 3341 
Q 956 3463 1253 3523 
Q 1550 3584 1831 3584 
Q 2591 3584 2966 3190 
Q 3341 2797 3341 1997 
z
" id="DejaVuSans-61" transform="scale(0.015625)"/>
       <path d="M 603 4863 
L 1178 4863 
L 1178 0 
L 603 0 
L 603 4863 
z
" id="DejaVuSans-6c" transform="scale(0.015625)"/>
      </defs>
      <use xlink:href="#DejaVuSans-74"/>
      <use x="39.208984" xlink:href="#DejaVuSans-6f"/>
      <use x="100.390625" xlink:href="#DejaVuSans-74"/>
      <use x="139.599609" xlink:href="#DejaVuSans-61"/>
      <use x="200.878906" xlink:href="#DejaVuSans-6c"/>
     </g>
    </g>
   </g>
  </g>
 </g>
 <defs>
  <clipPath id="p06928f1bed">
   <rect height="284.26" width="771.5725" x="66.245" y="20.62"/>
  </clipPath>
 </defs>
</svg>
